# xmcd
#
# Track frame offsets: 
#        150
#        23266
#        48216
#        69391
#        90881
#        105816
#        128671
#        152233
#        169758
#        192824
#        211622
#        227359
#        246527
#
# Disc length: 3463 seconds
#
# Revision: 2
# Processed by: cddbd v1.5.2PL0 Copyright (c) Steve Scherf et al.
# Submitted via: ExactAudioCopy v1.0b2
#
DISCID=8b0d850d
DTITLE=Jaimee Paul - At Last
DYEAR=2009
DGENRE=Jazz
TTITLE0=At Last
TTITLE1=Cry Me A River
TTITLE2=Fever
TTITLE3=Crazy
TTITLE4=What A Difference A Day Makes
TTITLE5=Summertime
TTITLE6=Lover Man
TTITLE7=Sentimental Journey
TTITLE8=Stormy Weather
TTITLE9=Whatever Lola Wants
TTITLE10=Love, You Didn't Do Right By Me
TTITLE11=You Belong To Me
TTITLE12=Over The Rainbow
EXTD=YEAR: 2009
EXTT0=
EXTT1=
EXTT2=
EXTT3=
EXTT4=
EXTT5=
EXTT6=
EXTT7=
EXTT8=
EXTT9=
EXTT10=
EXTT11=
EXTT12=
PLAYORDER=
